<svg width="282" height="294" viewBox="0 0 282 294" fill="none" xmlns="http://www.w3.org/2000/svg">
<path d="M191.328 276.849C195.088 280.146 199.318 282.766 203.867 284.607L206.8 285.687C211.237 287.137 215.875 287.876 220.543 287.875H232.105V149.32C232.105 90.1804 184.353 42.2547 125.452 42.2547C66.552 42.2547 18.8 90.1804 18.8 149.31V287.875H30.362C41.1195 287.878 51.508 283.957 59.5772 276.849L66.7024 270.716C70.5094 267.373 75.2 266.208 80.2572 266.208C85.3144 266.208 90.0144 267.373 93.8214 270.716L103.466 279.582C109.543 284.922 117.359 287.867 125.452 287.867C133.546 287.867 141.362 284.922 147.439 279.582L156.811 271.017C160.618 267.674 165.59 266.199 170.648 266.199C175.705 266.199 180.395 267.674 184.202 271.017L191.328 276.849Z" fill="#F9FAFB"/>
<path d="M177.876 128.94C177.876 124.15 179.781 119.556 183.171 116.169C186.561 112.782 191.158 110.88 195.952 110.88C200.747 110.88 205.344 112.782 208.734 116.169C212.124 119.556 214.029 124.15 214.029 128.94C214.029 133.73 212.124 138.323 208.734 141.71C205.344 145.097 200.747 147 195.952 147C191.158 147 186.561 145.097 183.171 141.71C179.781 138.323 177.876 133.73 177.876 128.94ZM127.257 110.88C132.051 110.88 136.649 112.782 140.039 116.169C143.429 119.556 145.333 124.15 145.333 128.94C145.333 133.73 143.429 138.323 140.039 141.71C136.649 145.097 132.051 147 127.257 147C122.463 147 117.865 145.097 114.475 141.71C111.085 138.323 109.181 133.73 109.181 128.94C109.181 124.15 111.085 119.556 114.475 116.169C117.865 112.782 122.463 110.88 127.257 110.88ZM227.48 240.729L220.355 234.897C216.557 231.553 211.857 230.079 206.8 230.079C201.743 230.079 196.761 231.553 192.963 234.897L183.601 243.462C177.522 248.807 169.702 251.755 161.605 251.755C153.507 251.755 145.688 248.807 139.609 243.462L129.974 234.596C126.167 231.253 121.467 230.088 116.41 230.088C111.362 230.088 106.662 231.253 102.855 234.596L95.7296 240.729C87.6536 247.825 77.2695 251.744 66.5144 251.755H54.9524V113.19C54.9524 54.0601 102.704 6.125 161.605 6.125C220.515 6.125 268.257 54.0601 268.257 113.19V251.755H256.695C252.027 251.752 247.388 251.01 242.952 249.557L240.029 248.486C235.442 246.619 231.2 243.997 227.48 240.729ZM236.673 215.559L242.952 220.706V113.19C242.952 67.894 206.443 31.4074 161.605 31.4074C116.776 31.4074 80.2572 67.894 80.2572 113.19V220.659L86.2638 215.493C96.115 206.909 107.508 204.787 116.419 204.787C125.358 204.787 136.808 206.928 146.687 215.606L146.894 215.794L156.472 224.594C157.914 225.801 159.736 226.461 161.618 226.457C163.499 226.454 165.318 225.787 166.756 224.575L176.25 215.907C185.65 207.642 197.033 204.796 206.8 204.796C216.783 204.796 227.583 207.764 236.673 215.559Z" fill="#757575"/>
</svg>
