<svg width="96" height="16" viewBox="0 0 96 16" fill="none" xmlns="http://www.w3.org/2000/svg">
<path d="M4.104 4.776H0.072V2.4H11.052V4.776H7.02V15H4.104V4.776ZM31.4364 2.4L27.3144 15H24.1824L21.4104 6.468L18.5484 15H15.4344L11.2944 2.4H14.3184L17.1624 11.256L20.1324 2.4H22.8324L25.7124 11.328L28.6464 2.4H31.4364ZM33.0421 5.316H35.8501V15H33.0421V5.316ZM34.4461 3.966C33.9301 3.966 33.5101 3.816 33.1861 3.516C32.8621 3.216 32.7001 2.844 32.7001 2.4C32.7001 1.956 32.8621 1.584 33.1861 1.284C33.5101 0.983999 33.9301 0.833999 34.4461 0.833999C34.9621 0.833999 35.3821 0.977999 35.7061 1.266C36.0301 1.554 36.1921 1.914 36.1921 2.346C36.1921 2.814 36.0301 3.204 35.7061 3.516C35.3821 3.816 34.9621 3.966 34.4461 3.966ZM42.6142 11.202L41.2642 12.534V15H38.4562V1.644H41.2642V9.204L45.3682 5.316H48.7162L44.6842 9.42L49.0762 15H45.6742L42.6142 11.202ZM50.2687 5.316H53.0767V15H50.2687V5.316ZM51.6727 3.966C51.1567 3.966 50.7367 3.816 50.4127 3.516C50.0887 3.216 49.9267 2.844 49.9267 2.4C49.9267 1.956 50.0887 1.584 50.4127 1.284C50.7367 0.983999 51.1567 0.833999 51.6727 0.833999C52.1887 0.833999 52.6087 0.977999 52.9327 1.266C53.2567 1.554 53.4187 1.914 53.4187 2.346C53.4187 2.814 53.2567 3.204 52.9327 3.516C52.6087 3.816 52.1887 3.966 51.6727 3.966Z" fill="#A36BFF"/>
<path d="M56.7447 15.144C56.2527 15.144 55.8387 14.976 55.5027 14.64C55.1667 14.304 54.9987 13.884 54.9987 13.38C54.9987 12.864 55.1667 12.45 55.5027 12.138C55.8387 11.814 56.2527 11.652 56.7447 11.652C57.2367 11.652 57.6507 11.814 57.9867 12.138C58.3227 12.45 58.4907 12.864 58.4907 13.38C58.4907 13.884 58.3227 14.304 57.9867 14.64C57.6507 14.976 57.2367 15.144 56.7447 15.144ZM60.3937 5.316H63.2017V15H60.3937V5.316ZM61.7977 3.966C61.2817 3.966 60.8617 3.816 60.5377 3.516C60.2137 3.216 60.0517 2.844 60.0517 2.4C60.0517 1.956 60.2137 1.584 60.5377 1.284C60.8617 0.983999 61.2817 0.833999 61.7977 0.833999C62.3137 0.833999 62.7337 0.977999 63.0577 1.266C63.3817 1.554 63.5437 1.914 63.5437 2.346C63.5437 2.814 63.3817 3.204 63.0577 3.516C62.7337 3.816 62.3137 3.966 61.7977 3.966ZM71.6937 5.172C72.8937 5.172 73.8597 5.532 74.5917 6.252C75.3357 6.972 75.7077 8.04 75.7077 9.456V15H72.8997V9.888C72.8997 9.12 72.7317 8.55 72.3957 8.178C72.0597 7.794 71.5737 7.602 70.9377 7.602C70.2297 7.602 69.6657 7.824 69.2457 8.268C68.8257 8.7 68.6157 9.348 68.6157 10.212V15H65.8077V5.316H68.4897V6.45C68.8617 6.042 69.3237 5.73 69.8757 5.514C70.4277 5.286 71.0337 5.172 71.6937 5.172ZM81.331 5.532H83.815V7.692H81.403V15H78.595V7.692H77.101V5.532H78.595V5.1C78.595 3.996 78.919 3.12 79.567 2.472C80.227 1.824 81.151 1.5 82.339 1.5C82.759 1.5 83.155 1.548 83.527 1.644C83.911 1.728 84.229 1.854 84.481 2.022L83.743 4.056C83.419 3.828 83.041 3.714 82.609 3.714C81.757 3.714 81.331 4.182 81.331 5.118V5.532ZM89.6989 15.144C88.6789 15.144 87.7609 14.934 86.9449 14.514C86.1409 14.082 85.5109 13.488 85.0549 12.732C84.5989 11.976 84.3709 11.118 84.3709 10.158C84.3709 9.198 84.5989 8.34 85.0549 7.584C85.5109 6.828 86.1409 6.24 86.9449 5.82C87.7609 5.388 88.6789 5.172 89.6989 5.172C90.7189 5.172 91.6309 5.388 92.4349 5.82C93.2389 6.24 93.8689 6.828 94.3249 7.584C94.7809 8.34 95.0089 9.198 95.0089 10.158C95.0089 11.118 94.7809 11.976 94.3249 12.732C93.8689 13.488 93.2389 14.082 92.4349 14.514C91.6309 14.934 90.7189 15.144 89.6989 15.144ZM89.6989 12.84C90.4189 12.84 91.0069 12.6 91.4629 12.12C91.9309 11.628 92.1649 10.974 92.1649 10.158C92.1649 9.342 91.9309 8.694 91.4629 8.214C91.0069 7.722 90.4189 7.476 89.6989 7.476C88.9789 7.476 88.3849 7.722 87.9169 8.214C87.4489 8.694 87.2149 9.342 87.2149 10.158C87.2149 10.974 87.4489 11.628 87.9169 12.12C88.3849 12.6 88.9789 12.84 89.6989 12.84Z" fill="#CAAAFF"/>
</svg>
